<?xml version="1.0" standalone="no"?>
<!DOCTYPE svg PUBLIC "-//W3C//DTD SVG 20010904//EN"
 "http://www.w3.org/TR/2001/REC-SVG-20010904/DTD/svg10.dtd">
<svg version="1.0" xmlns="http://www.w3.org/2000/svg"
 width="128.000000pt" height="128.000000pt" viewBox="0 0 128.000000 128.000000"
 preserveAspectRatio="xMidYMid meet">

<g transform="translate(0.000000,128.000000) scale(0.100000,-0.100000)"
fill="white" stroke="none">
<path d="M943 1018 c-6 -7 -25 -73 -43 -146 -30 -124 -34 -133 -54 -128 -391
106 -650 168 -664 160 -23 -15 -104 -214 -98 -239 7 -25 161 -245 183 -262 11
-9 53 -13 118 -13 l102 0 13 -55 c23 -94 43 -95 108 -6 l42 59 85 3 85 4 120
120 c66 66 123 127 125 136 3 9 -4 51 -16 94 -11 42 -19 78 -17 79 1 1 39 13
83 27 113 36 110 48 -30 121 -119 62 -127 64 -142 46z m169 -119 c-8 -8 -84
-30 -89 -25 -2 1 -9 23 -17 49 l-14 46 64 -32 c35 -17 60 -34 56 -38z m-123
-97 c17 -62 31 -120 31 -130 0 -10 -39 -56 -86 -102 -48 -47 -85 -78 -82 -70
3 8 27 106 53 217 27 112 50 202 51 200 2 -1 17 -53 33 -115z m-410 -33 c146
-38 266 -71 268 -73 3 -2 -38 -185 -53 -238 -4 -15 -17 -18 -76 -18 l-70 0
-92 85 -92 84 -162 39 c-89 22 -165 41 -167 44 -3 3 11 43 31 90 l36 86 56
-15 c32 -8 176 -46 321 -84z m-270 -169 c68 -16 125 -31 126 -32 3 -5 35 -124
35 -131 0 -4 -40 -7 -90 -7 l-89 0 -71 99 c-38 55 -70 103 -70 106 0 4 8 4 18
1 9 -3 73 -19 141 -36z m295 -182 c7 -12 1 -26 -24 -58 l-34 -43 -28 99 c-15
54 -28 101 -28 103 0 7 104 -86 114 -101z"/>
</g>
</svg>
